<?xml version="1.0" encoding="UTF-8"?>
<svg width="17px" height="18px" viewBox="0 0 17 18" version="1.1" xmlns="http://www.w3.org/2000/svg" xmlns:xlink="http://www.w3.org/1999/xlink">
    <path d="M3.71092865,17.1874972 L0.259765006,17.1874972 L0.259765006,6.0918205 L3.71092865,6.0918205 L3.71092865,17.1874972 Z M2.00390147,4.57033975 C1.45963175,4.57033975 0.989581163,4.37242374 0.593748584,3.97659117 C0.197916006,3.58075859 0,3.110708 0,2.56643828 C0,2.02216855 0.197916006,1.55211797 0.593748584,1.15628539 C0.989581163,0.760452812 1.45963175,0.562536806 2.00390147,0.562536806 C2.5481712,0.562536806 3.01822178,0.760452812 3.41405436,1.15628539 C3.80988694,1.55211797 4.00780294,2.02216855 4.00780294,2.56643828 C4.00780294,3.110708 3.80988694,3.58075859 3.41405436,3.97659117 C3.01822178,4.37242374 2.5481712,4.57033975 2.00390147,4.57033975 Z M16.6249604,17.1874972 L13.1737967,17.1874972 L13.1737967,11.7695413 C13.1737967,10.8789185 13.0995781,10.235691 12.951141,9.83985844 C12.6790064,9.17189128 12.1471063,8.8379077 11.3554417,8.8379077 C10.5637771,8.8379077 10.0071378,9.13478199 9.68552378,9.72853058 C9.43812835,10.173842 9.31443092,10.8294396 9.31443092,11.6953228 L9.31443092,17.1874972 L5.90037656,17.1874972 L5.90037656,6.0918205 L9.20310306,6.0918205 L9.20310306,7.61330125 L9.24021234,7.61330125 C9.48760778,7.11851095 9.88343979,6.7103088 10.4277095,6.38869479 C11.0214581,5.99286221 11.714165,5.79494621 12.5058296,5.79494621 C14.1138985,5.79494621 15.2395472,6.30210664 15.8827746,7.31642695 C16.3775649,8.13283126 16.6249604,9.394547 16.6249604,11.1015742 L16.6249604,17.1874972 Z" id="icon_linkedIn" fill="#fff"></path>
</svg>