<?xml version="1.0" encoding="UTF-8"?>
<svg width="19px" height="20px" viewBox="0 0 19 20" version="1.1" xmlns="http://www.w3.org/2000/svg" xmlns:xlink="http://www.w3.org/1999/xlink">
    <path d="M9.49997735,0.671913929 C11.1575257,0.671913929 12.691376,1.08630115 14.1015289,1.91507503 C15.5116818,2.7438489 16.6311454,3.86331257 17.4599193,5.27346546 C18.2886932,6.68361835 18.7030804,8.21746867 18.7030804,9.87501699 C18.7030804,11.5325653 18.2886932,13.0664156 17.4599193,14.4765685 C16.6311454,15.8867214 15.5116818,17.0061851 14.1015289,17.8349589 C12.691376,18.6637328 11.1575257,19.07812 9.49997735,19.07812 C7.84242903,19.07812 6.30857871,18.6637328 4.89842582,17.8349589 C3.48827293,17.0061851 2.36880927,15.8867214 1.54003539,14.4765685 C0.711261514,13.0664156 0.296874292,11.5325653 0.296874292,9.87501699 C0.296874292,8.21746867 0.711261514,6.68361835 1.54003539,5.27346546 C2.36880927,3.86331257 3.48827293,2.7438489 4.89842582,1.91507503 C6.30857871,1.08630115 7.84242903,0.671913929 9.49997735,0.671913929 Z M15.5859003,4.90237259 C15.3137658,5.27346546 14.9303028,5.66929804 14.4355125,6.08986976 C13.4954107,6.88153435 12.4192414,7.52476236 11.2070045,8.01955266 C11.4296602,8.51434296 11.652316,9.03387297 11.8749717,9.5781427 C12.9882503,9.42970555 14.2004872,9.41733598 15.5116818,9.54103341 C16.2043886,9.61525198 16.8228764,9.70184013 17.3671461,9.80079841 C17.3424064,8.88543582 17.1815997,8.01336759 16.8847254,7.18459371 C16.5878511,6.35581984 16.1549092,5.59507946 15.5859003,4.90237259 Z M14.6952775,4.01174972 C13.730436,3.14586655 12.629527,2.55830247 11.392551,2.24905861 C10.1555749,1.93981474 8.90622877,1.93362967 7.64451302,2.23050396 C8.70831276,3.64065685 9.68552378,5.17450717 10.5761467,6.83205549 C11.7636438,6.41148377 12.7903343,5.84247433 13.6562174,5.12502831 C14.1262686,4.72919573 14.4726217,4.35810287 14.6952775,4.01174972 Z M6.16014156,2.78714326 C5.04686297,3.30667327 4.10676123,4.048859 3.33983579,5.01370045 C2.57291034,5.9785419 2.06575047,7.06708078 1.81835504,8.27931767 C2.4863222,8.27931767 3.27798679,8.24220838 4.19334938,8.16798981 C5.90037656,8.01955266 7.52081559,7.73504794 9.05466591,7.31447622 C8.16404304,5.70640732 7.19920159,4.19729615 6.16014156,2.78714326 Z M1.63280861,9.87501699 C1.63280861,10.8645982 1.81216997,11.810885 2.17089326,12.7138774 C2.52961655,13.6168699 3.03059192,14.4270897 3.67381937,15.1445357 C4.34178652,13.9817782 5.25714911,12.9303481 6.41990657,11.9902463 C7.68162231,10.9511863 8.99281691,10.2461099 10.3534909,9.87501699 C10.1803141,9.42970555 9.9700285,8.98439411 9.72263307,8.53908267 C8.06508475,9.03387297 6.27146942,9.36785655 4.34178652,9.54103341 C3.3027265,9.61525198 2.39973405,9.65236127 1.63280861,9.65236127 L1.63280861,9.87501699 Z M4.6757701,16.0722678 C5.81378841,16.9876304 7.0940588,17.5257151 8.51658126,17.6865218 C9.93910372,17.8473285 11.2935927,17.6555976 12.5800481,17.1113279 C12.2584341,15.2063847 11.7017948,13.2272223 10.9101302,11.173842 C9.40101906,11.6686323 8.06508475,12.410818 6.90232729,13.4003992 C5.86326727,14.2662824 5.12108154,15.1569052 4.6757701,16.0722678 Z M13.8788732,16.4062514 C14.769496,15.8125028 15.5116818,15.0579475 16.1054304,14.1425849 C16.6991789,13.2272223 17.0826414,12.2252716 17.2558182,11.1367327 C16.8105068,10.9882956 16.2662371,10.8769677 15.6230096,10.8027492 C14.4849913,10.6295723 13.3964524,10.6295723 12.3573924,10.8027492 C13.0748384,12.7819109 13.5819989,14.6497454 13.8788732,16.4062514 Z" id="icon_dribbble" fill="#fff"></path>
</svg>