<?xml version="1.0" encoding="UTF-8"?>
<svg width="19px" height="19px" viewBox="0 0 19 19" version="1.1" xmlns="http://www.w3.org/2000/svg" xmlns:xlink="http://www.w3.org/1999/xlink">
    <path d="M6.16014156,15.1074264 C6.16014156,15.2063847 6.09210806,15.2620486 5.95604049,15.2744182 C5.81997291,15.2867878 5.75193941,15.243494 5.75193941,15.1445357 C5.75193941,15.0455774 5.81378841,14.9960985 5.93748584,14.9960985 C6.01170442,14.9960985 6.06736835,15.0084681 6.10447763,15.0332078 C6.14158692,15.0579475 6.16014156,15.0826867 6.16014156,15.1074264 Z M5.00975368,14.9589892 C5.03449339,14.860031 5.10871197,14.8291067 5.2324094,14.866216 C5.35610683,14.9033253 5.41177076,14.9528042 5.39940119,15.0146532 C5.38703162,15.0765022 5.35610683,15.119796 5.30662797,15.1445357 C5.25714911,15.1692754 5.20766969,15.1692754 5.15819083,15.1445357 C5.10871197,15.119796 5.06541761,15.0888717 5.02830832,15.0517625 C4.99119904,15.0146532 4.98501397,14.983729 5.00975368,14.9589892 Z M6.64256229,14.8847707 C6.76625972,14.8847707 6.83429379,14.92188 6.84666336,14.9960985 C6.85903294,15.0703171 6.80336901,15.1321661 6.67967157,15.181645 C6.63019271,15.181645 6.58689836,15.1754599 6.54978907,15.1630903 C6.51267979,15.1507207 6.48794007,15.1074264 6.4755705,15.0332078 C6.46320093,14.9589892 6.51886485,14.9095104 6.64256229,14.8847707 Z M9.09179688,0.671913929 C10.7740884,0.671913929 12.3326821,1.06774651 13.7675781,1.8594111 C15.2024741,2.65107569 16.328125,3.727245 17.1445312,5.08791903 C17.9856773,6.49807191 18.40625,8.04429237 18.40625,9.72657984 C18.40625,11.7799602 17.8310547,13.6168699 16.6806641,15.2373089 C15.5302734,16.8577479 14.0273438,17.977211 12.171875,18.5956993 C11.9739585,18.6451782 11.8193359,18.620439 11.7080078,18.5214807 C11.5966797,18.4225225 11.5410156,18.298825 11.5410156,18.1503879 L11.5410156,15.0332078 C11.5410156,14.2415432 11.330729,13.6725338 10.9101562,13.3261806 C11.825521,13.2272223 12.5058594,13.1035249 12.9511719,12.9550878 C13.6438804,12.7076923 14.1757812,12.3365995 14.546875,11.8418092 C14.9674477,11.1985817 15.1777344,10.3203284 15.1777344,9.20704983 C15.1777344,8.73699868 15.091146,8.32879653 14.9179687,7.98244337 C14.794271,7.73504794 14.5592446,7.42580408 14.2128906,7.05471121 C14.3118491,6.80731578 14.3736977,6.51044149 14.3984375,6.16408833 C14.4231773,5.61981861 14.3365884,5.07554945 14.1386719,4.53127973 C13.8912759,4.45706115 13.5449219,4.50654001 13.0996094,4.67971687 C12.8027344,4.80341431 12.4563804,4.97659117 12.0605469,5.19924689 L11.578125,5.53323046 C10.8111977,5.31057474 10.0257163,5.19924689 9.22167969,5.19924689 C8.41764304,5.19924689 7.64453125,5.31057474 6.90234375,5.53323046 L6.41992188,5.19924689 C6.02408835,4.97659117 5.66536477,4.80341431 5.34375,4.67971687 C4.8984375,4.50654001 4.56445312,4.45706115 4.34179688,4.53127973 C4.11914062,5.07554945 4.03255227,5.61981861 4.08203125,6.16408833 C4.08203125,6.51044149 4.13151023,6.79494621 4.23046875,7.01760192 C3.93359375,7.38869479 3.71712258,7.72886344 3.58105469,8.0381073 C3.44498679,8.34735117 3.37695312,8.73699868 3.37695312,9.20704983 C3.37695312,10.3203284 3.5748696,11.1862116 3.97070312,11.8046999 C4.3170571,12.3242299 4.83658835,12.7076923 5.52929688,12.9550878 C5.97460938,13.1035249 6.64257812,13.2272223 7.53320313,13.3261806 C7.21158835,13.6230549 7.01367188,14.0436267 6.93945312,14.5878964 C6.5188804,14.7858124 6.11067727,14.860031 5.71484375,14.8105521 C5.07161477,14.7610732 4.57682273,14.4270897 4.23046875,13.8086014 C4.08203125,13.5364668 3.88411477,13.3138111 3.63671875,13.1406342 C3.46354148,13.0416759 3.2779946,12.9550878 3.08007812,12.8808692 L2.8203125,12.8437599 C2.54817727,12.8437599 2.40592429,12.8870543 2.39355469,12.9736424 C2.38118508,13.0602306 2.43684915,13.1530038 2.56054687,13.2519621 L2.74609375,13.4003992 C2.91927102,13.4993575 3.09244773,13.6601642 3.265625,13.8828199 C3.4140625,14.0559968 3.53776023,14.2539128 3.63671875,14.4765685 L3.78515625,14.7734428 C3.90885398,15.1445357 4.1438804,15.4290404 4.49023438,15.6269564 C4.78710938,15.8001333 5.14583352,15.9114611 5.56640625,15.96094 C5.86328125,15.9856797 6.17252585,15.9733096 6.49414062,15.9238307 L6.90234375,15.8867214 L6.93945312,18.1503879 C6.93945312,18.298825 6.88378906,18.4225225 6.77246094,18.5214807 C6.66113281,18.620439 6.50651023,18.6451782 6.30859375,18.5956993 C4.42838523,17.977211 2.90690085,16.8577479 1.74414062,15.2373089 C0.581380397,13.6168699 0,11.7799602 0,9.72657984 C0,8.04429237 0.395833522,6.51044149 1.1875,5.12502831 C1.97916648,3.73961514 3.06770852,2.65107569 4.453125,1.8594111 C5.83854148,1.06774651 7.38476562,0.671913929 9.09179688,0.671913929 Z M3.59960079,13.4746178 C3.64907965,13.4251389 3.71092865,13.4375085 3.78514723,13.5117271 C3.8593658,13.5859456 3.87173537,13.6477946 3.82225651,13.6972735 C3.77277765,13.7467524 3.71092865,13.7343828 3.63671008,13.6601642 C3.56249151,13.5859456 3.55012193,13.5240966 3.59960079,13.4746178 Z M3.19139864,13.1777435 C3.2408775,13.1282646 3.3027265,13.1220796 3.37694507,13.1591888 C3.45116365,13.1962981 3.47590336,13.245777 3.45116365,13.307626 C3.42642393,13.369475 3.37076,13.3756595 3.28417186,13.3261806 C3.19758371,13.2767018 3.16665893,13.2272223 3.19139864,13.1777435 Z M4.4160051,14.4765685 C4.44074481,14.4518288 4.4778541,14.4456443 4.52733296,14.4580139 C4.57681182,14.4703834 4.62010617,14.4951232 4.65721546,14.5322324 C4.69432475,14.5693417 4.71906446,14.6126361 4.73143403,14.6621149 C4.74380361,14.7115938 4.7376191,14.7487031 4.71287939,14.7734428 C4.63866082,14.8476614 4.55207267,14.8352918 4.45311438,14.7363335 C4.40363552,14.6868547 4.37889581,14.6373752 4.37889581,14.5878964 C4.37889581,14.5384175 4.39126538,14.5013082 4.4160051,14.4765685 Z M3.97069366,13.9570385 C4.02017252,13.9322988 4.06346687,13.9261143 4.10057616,13.9384839 C4.13768545,13.9508534 4.16860966,13.9817782 4.19334938,14.0312571 C4.26756795,14.1302154 4.26756795,14.2044339 4.19334938,14.2539128 C4.16860966,14.2786525 4.13768545,14.2786525 4.10057616,14.2539128 C4.06346687,14.2291731 4.02017252,14.2044339 3.97069366,14.1796942 C3.9212148,14.0559968 3.9212148,13.9817782 3.97069366,13.9570385 Z" id="icon_github" fill="#fff"></path>
</svg>