<?xml version="1.0" encoding="UTF-8"?>
<svg width="19px" height="15px" viewBox="0 0 19 15" version="1.1" xmlns="http://www.w3.org/2000/svg" xmlns:xlink="http://www.w3.org/1999/xlink">
    <path d="M2.67186863,3.64455832 C2.67186863,3.4219026 2.58528048,3.2239866 2.41210362,3.05080974 L0.74218573,1.04690827 L0.74218573,0.750033975 L5.97459513,0.750033975 L9.98239808,9.58204417 L13.5077803,0.750033975 L18.4804247,0.750033975 L18.4804247,1.04690827 L17.0331625,2.41995187 C16.9094651,2.51891015 16.8599857,2.65497716 16.8847254,2.82815402 L16.8847254,12.92188 C16.8599857,13.0950568 16.9094651,13.2311238 17.0331625,13.3300821 L18.4433154,14.7031257 L18.4433154,15 L11.392551,15 L11.392551,14.7031257 L12.8398131,13.2929728 C12.9140317,13.2187542 12.9573261,13.1630903 12.9696956,13.125981 C12.9820652,13.0888717 12.9882503,13.0084681 12.9882503,12.8847707 L12.9882503,4.72072763 L8.98044734,14.9628907 L8.42380804,14.9628907 L3.71092865,4.72072763 L3.71092865,11.5859456 C3.68618894,11.8828199 3.77277765,12.1425849 3.97069366,12.3652407 L5.86326727,14.6660164 L5.86326727,14.9628907 L0.519530011,14.9628907 L0.519530011,14.6660164 L2.41210362,12.3652407 C2.63475934,12.1425849 2.72134749,11.8828199 2.67186863,11.5859456 L2.67186863,3.64455832 Z" id="icon_medium" fill="#fff"></path>
</svg>