<?xml version="1.0" encoding="UTF-8"?>
<svg width="30px" height="24px" viewBox="0 0 30 24" version="1.1" xmlns="http://www.w3.org/2000/svg" xmlns:xlink="http://www.w3.org/1999/xlink">
    <!-- Generator: Sketch 49.3 (51167) - http://www.bohemiancoding.com/sketch -->
    <title>“</title>
    <desc>Created with Sketch.</desc>
    <defs></defs>
    <g id="About" stroke="none" stroke-width="1" fill="none" fill-rule="evenodd">
        <path d="M12.9928337,2.88640105 C11.6180796,3.67615344 10.5065929,4.3562078 9.65834031,4.92658452 C8.81008775,5.49696125 7.94722308,6.25013973 7.06972043,7.18614256 C6.25071795,8.06364521 5.62185048,8.98500918 5.18309915,9.9502621 C4.74434782,10.915515 4.4372265,12.1586251 4.26172597,13.6796297 L6.36772181,13.6796297 C8.1812273,13.6796297 9.60714772,14.1256869 10.6455259,15.0178146 C11.683904,15.9099423 12.2030853,17.2188641 12.2030853,18.9446193 C12.2030853,20.1731231 11.7424033,21.3211718 10.8210255,22.3888 C9.89964773,23.4564283 8.63460038,23.9902344 7.02584551,23.9902344 C4.5103379,23.9902344 2.71148444,23.1639318 1.62923117,21.5113018 C0.546977895,19.8586718 0.005859375,17.6868853 0.005859375,14.9958771 C0.005859375,13.0946214 0.415354471,11.3615796 1.23435695,9.7966999 C2.05335943,8.23182017 3.04784752,6.8351494 4.21785106,5.60664568 C5.41710469,4.34889187 6.68946445,3.28127966 8.03496852,2.403777 C9.38047259,1.52627435 10.5065841,0.809657931 11.4133368,0.25390625 L12.9928337,2.88640105 Z M29.2265517,2.88640105 C27.8517975,3.67615344 26.7403108,4.3562078 25.8920583,4.92658452 C25.0438057,5.49696125 24.180941,6.25013973 23.3034384,7.18614256 C22.4551858,8.0928953 21.8190059,9.02157168 21.3948796,9.97219956 C20.9707534,10.9228274 20.6709444,12.1586251 20.4954439,13.6796297 L22.6014398,13.6796297 C24.4149452,13.6796297 25.8408657,14.1256869 26.8792438,15.0178146 C27.9176219,15.9099423 28.4368032,17.2188641 28.4368032,18.9446193 C28.4368032,20.1731231 27.9761212,21.3211718 27.0547435,22.3888 C26.1333657,23.4564283 24.8683183,23.9902344 23.2595635,23.9902344 C20.7440558,23.9902344 18.9452024,23.1639318 17.8629491,21.5113018 C16.7806958,19.8586718 16.2395773,17.6868853 16.2395773,14.9958771 C16.2395773,13.0946214 16.6490724,11.3615796 17.4680749,9.7966999 C18.2870774,8.23182017 19.2815655,6.8351494 20.451569,5.60664568 C21.6508226,4.34889187 22.9231824,3.28127966 24.2686865,2.403777 C25.6141905,1.52627435 26.740302,0.809657931 27.6470548,0.25390625 L29.2265517,2.88640105 Z" id="“" fill="#000000"></path>
    </g>
</svg>