<?xml version="1.0" encoding="UTF-8"?>
<svg width="16px" height="14px" viewBox="0 0 16 14" version="1.1" xmlns="http://www.w3.org/2000/svg" xmlns:xlink="http://www.w3.org/1999/xlink">
    <!-- Generator: Sketch 49.3 (51167) - http://www.bohemiancoding.com/sketch -->
    <title>“</title>
    <desc>Created with Sketch.</desc>
    <defs></defs>
    <g id="About" stroke="none" stroke-width="1" fill="none" fill-rule="evenodd">
        <path d="M8.66,7.996 C8.66,5.24 10.376,2.276 13.808,-0.012 L14.952,1.236 C12.768,2.952 11.572,4.46 11.572,5.76 C11.572,7.06 12.716,8.152 15.056,9.296 L15.056,11.116 L11.052,13.248 C9.44,11.74 8.66,9.92 8.66,7.996 Z M0.236,7.996 C0.236,5.24 1.952,2.276 5.384,-0.012 L6.528,1.236 C4.344,2.952 3.148,4.46 3.148,5.76 C3.148,7.06 4.292,8.152 6.632,9.296 L6.632,11.116 L2.628,13.248 C1.016,11.74 0.236,9.92 0.236,7.996 Z" id="“" fill="#fff"></path>
    </g>
</svg>